<svg id="图层_1" data-name="图层 1" xmlns="http://www.w3.org/2000/svg" viewBox="0 0 203.29 232.52"><defs><style>.cls-1{fill:#231815;}.cls-2{fill:none;}</style></defs><path class="cls-1" d="M169.64,111.91v6.15l-3.2-1.85L162,118.77V114l-1.26-2.17,4.1-2.37C169.32,107.92,169.64,111.91,169.64,111.91Z" transform="translate(-64.78 -108.95)"/><path class="cls-1" d="M175.07,300.8l55.83-32.48,10.44,6a15.69,15.69,0,0,1-3.19,2.4l-63.1,36.44a16.76,16.76,0,0,1-8.39,2.25v-9.74h0Z" transform="translate(-64.78 -108.95)"/><path class="cls-1" d="M266,279.82s4.44,2.92.37,6.3h0l-3.45,2-1.15-2-4.18-2.41,4.18-2.41v-3.91Z" transform="translate(-64.78 -108.95)"/><path class="cls-1" d="M261.76,286.12l1.15,2-89.09,51.44a14.31,14.31,0,0,1-7.16,1.91V334.1a14.23,14.23,0,0,0,6.94-1.9l84-48.49Z" transform="translate(-64.78 -108.95)"/><path class="cls-1" d="M261.76,277.39v3.91l-4.18,2.41-14.36-8.28c1.35-2.13,2.61-4.31,3.78-6.56Z" transform="translate(-64.78 -108.95)"/><path class="cls-1" d="M245.51,268l1.49.86c-1.17,2.25-2.43,4.43-3.78,6.56l-1.88-1.09A16.51,16.51,0,0,0,245.51,268Z" transform="translate(-64.78 -108.95)"/><path class="cls-1" d="M246.56,259.21v3a16.58,16.58,0,0,1-1.05,5.83l-7.07-4.08Z" transform="translate(-64.78 -108.95)"/><polygon class="cls-1" points="181.78 80.66 181.78 150.26 173.66 154.98 173.65 154.98 170.55 153.19 170.55 87.07 181.57 80.66 181.78 80.66"/><path class="cls-1" d="M235.33,196l-5.15,3v-9.6h0l14.28-8.26a16.74,16.74,0,0,1,2.12,8.17v.29h-.21Z" transform="translate(-64.78 -108.95)"/><path class="cls-1" d="M235.33,265.74l3.1-1.81h0l7.07,4.08a16.51,16.51,0,0,1-4.17,6.33l-10.44-6Z" transform="translate(-64.78 -108.95)"/><path class="cls-1" d="M244.44,181.15l-14.28,8.26-9-5.22,16.61-9.66.41.23A16.7,16.7,0,0,1,244.44,181.15Z" transform="translate(-64.78 -108.95)"/><polygon class="cls-1" points="173.65 154.98 170.55 156.79 170.55 153.19 173.65 154.98"/><polygon class="cls-1" points="170.55 153.19 170.55 156.79 166.12 159.37 160.97 156.4 165.4 153.84 165.4 150.22 170.55 153.19"/><polygon class="cls-1" points="170.55 87.07 170.55 153.19 165.4 150.22 165.4 90.07 170.55 87.07"/><polygon class="cls-1" points="166.12 159.37 110.29 191.85 110.29 185.65 160.97 156.4 166.12 159.37"/><polygon class="cls-1" points="165.4 80.47 165.4 90.07 113.48 120.27 104.96 115.36 165.38 80.46 165.4 80.47"/><polygon class="cls-1" points="165.38 80.46 104.96 115.36 104.86 115.3 104.86 105.2 156.35 75.24 165.38 80.46"/><path class="cls-1" d="M175.05,138.32l53.83,31.09-16.62,9.67-42.62-24.61V136.84c.78,0,1.56,0,2.33.1A16.59,16.59,0,0,1,175.05,138.32Z" transform="translate(-64.78 -108.95)"/><polygon class="cls-1" points="113.48 120.27 110.29 122.13 105.94 124.66 103.72 123.38 104.86 121.41 104.86 115.42 104.96 115.36 113.48 120.27"/><polygon class="cls-1" points="110.29 185.65 110.29 191.85 101.88 196.74 101.87 196.74 101.87 190.51 110.29 185.65"/><polygon class="cls-1" points="110.29 168.37 110.29 185.65 101.87 190.51 101.87 173.27 110.29 168.37"/><polygon class="cls-1" points="110.29 127.17 110.29 168.37 101.87 173.27 101.87 160.59 101.87 153.59 101.86 127.15 101.86 127.03 105.94 124.66 110.29 127.17"/><polygon class="cls-1" points="110.29 122.13 110.29 127.17 105.94 124.66 110.29 122.13"/><path class="cls-1" d="M172,136.94c-.77-.05-1.55-.09-2.33-.1v-.49A15,15,0,0,1,172,136.94Z" transform="translate(-64.78 -108.95)"/><polygon class="cls-1" points="105.94 124.66 101.86 127.03 101.86 122.31 103.72 123.38 105.94 124.66"/><polygon class="cls-1" points="104.96 115.36 104.86 115.42 104.86 115.3 104.96 115.36"/><polygon class="cls-1" points="104.86 115.42 104.86 121.41 103.72 123.38 101.86 122.31 101.86 117.15 104.86 115.42"/><polygon class="cls-1" points="104.86 115.3 104.86 115.42 101.86 117.15 38.36 80.45 47.4 75.23 93.68 102.16 101.88 106.93 104.86 105.2 104.86 115.3"/><path class="cls-1" d="M162,136.92c1.62-.09,3.24-.13,4.88-.13.92,0,1.84,0,2.76.05v17.63l-3-1.73-54.46,31.44L96.43,175l-.44-.75,62.24-36a17.28,17.28,0,0,1,3-1.35Z" transform="translate(-64.78 -108.95)"/><path class="cls-1" d="M169.64,136.35v.49c-.92,0-1.84-.05-2.76-.05-1.64,0-3.26,0-4.88.13v-.19A16.6,16.6,0,0,1,169.64,136.35Z" transform="translate(-64.78 -108.95)"/><path class="cls-1" d="M169.64,118.06v18.29a16.6,16.6,0,0,0-7.64.38v-18l4.44-2.56Z" transform="translate(-64.78 -108.95)"/><path class="cls-1" d="M166.66,334.1v7.37a14.31,14.31,0,0,1-7.16-1.91L71.94,289a14.31,14.31,0,0,1-5.24-5.24l6.3-3.64a14.23,14.23,0,0,0,5.28,5.31l81,46.77A14.24,14.24,0,0,0,166.66,334.1Z" transform="translate(-64.78 -108.95)"/><path class="cls-1" d="M166.65,305.69v9.74a16.91,16.91,0,0,1-8.43-2.25l-.22-.13V294.49l8.63,5h0Z" transform="translate(-64.78 -108.95)"/><polygon class="cls-1" points="101.87 173.27 101.87 190.51 101.86 190.52 93.23 185.54 93.23 178.3 101.87 173.27"/><polygon class="cls-1" points="101.87 160.59 101.87 173.27 93.23 178.3 93.23 156.93 99.52 160.59 101.87 160.59"/><polygon class="cls-1" points="101.87 153.59 101.87 160.59 99.52 160.59 93.23 156.93 93.23 149.35 100.52 153.59 101.87 153.59"/><polygon class="cls-1" points="101.76 127.09 101.86 127.15 101.87 153.59 100.52 153.59 93.23 149.35 93.23 122.13 101.76 127.09"/><polygon class="cls-1" points="101.86 122.31 101.86 127.03 101.76 127.09 93.23 122.13 97.39 119.73 101.86 122.31"/><polygon class="cls-1" points="101.86 117.15 101.86 122.31 97.39 119.73 101.86 117.15"/><polygon class="cls-1" points="97.39 119.73 93.23 122.13 38.32 90.18 38.32 80.47 38.36 80.45 101.86 117.15 97.39 119.73"/><path class="cls-1" d="M162,136.73v.19l-.79.05C161.47,136.88,161.73,136.8,162,136.73Z" transform="translate(-64.78 -108.95)"/><path class="cls-1" d="M162,114v4.77L78.28,167.11a14.05,14.05,0,0,0-5.08,5l-6.5-3.76a14.31,14.31,0,0,1,5.24-5.24l88.8-51.27Z" transform="translate(-64.78 -108.95)"/><polygon class="cls-1" points="93.23 149.35 93.23 156.93 63.2 139.46 69.74 135.68 93.23 149.35"/><path class="cls-1" d="M151.75,290.87v0l-16,9.3L95.14,276.74a16.75,16.75,0,0,1-6-5.92l14-8.06v0Z" transform="translate(-64.78 -108.95)"/><polygon class="cls-1" points="69.74 135.68 63.2 139.46 38.32 124.98 38.32 117.4 69.74 135.68"/><path class="cls-1" d="M112.18,184.18l-9,5.22-14.09-8.14c.61-1,1.24-2.06,1.89-3.07a16.87,16.87,0,0,1,4.2-3.43l.85-.49.44.75Z" transform="translate(-64.78 -108.95)"/><path class="cls-1" d="M103.14,189.4l0,0v9.71l-16.37-9.52v-.29a16.44,16.44,0,0,1,1.06-5.85c.4-.75.83-1.48,1.26-2.21Z" transform="translate(-64.78 -108.95)"/><path class="cls-1" d="M103.1,233.93v28.83l-14,8.06a16.76,16.76,0,0,1-2.39-8.64V225.35h1.62Z" transform="translate(-64.78 -108.95)"/><polygon class="cls-1" points="38.32 117.4 38.32 124.98 23.57 116.4 21.95 116.4 21.95 109.4 24.57 109.4 38.32 117.4"/><polygon class="cls-1" points="38.32 90.18 38.32 117.4 24.57 109.4 21.95 109.4 21.95 80.66 38.32 90.18"/><path class="cls-1" d="M90.94,178.19c-.65,1-1.28,2-1.89,3.07l-.19-.12A16.72,16.72,0,0,1,90.94,178.19Z" transform="translate(-64.78 -108.95)"/><path class="cls-1" d="M88.86,181.14l.19.12c-.43.73-.86,1.46-1.26,2.21A14.9,14.9,0,0,1,88.86,181.14Z" transform="translate(-64.78 -108.95)"/><path class="cls-1" d="M66.7,168.34l6.5,3.76a14.2,14.2,0,0,0-2.08,7.41V273A14.31,14.31,0,0,0,73,280.12l-6.3,3.64a14.26,14.26,0,0,1-1.92-7.16V175.5A14.26,14.26,0,0,1,66.7,168.34Z" transform="translate(-64.78 -108.95)"/><path class="cls-2" d="M165.25,109.23a4.67,4.67,0,0,1,2.31-.2,1.6,1.6,0,0,1,.51.2" transform="translate(-64.78 -108.95)"/></svg>